<svg xmlns="http://www.w3.org/2000/svg" viewBox="600 9800 23000 5600" width="100%" height="100%">
  <g fill="currentColor">
    <path d="M6087 15155 c-777 -113 -1350 -602 -1526 -1302 -55 -219 -70 -537 -36 -748 76 -473 306 -857 680 -1135 485 -360 1171 -466 1785 -275 418 130 757 388 988 751 346 544 344 1350 -5 1897 -284 445 -752 732 -1321 811 -136 19 -436 19 -565 1z m530 -675 c375 -78 673 -347 787 -708 39 -125 56 -240 56 -386 0 -258 -58 -460 -186 -653 -176 -264 -476 -437 -803 -461 -352 -26 -663 86 -886 320 -195 203 -289 433 -302 740 -27 607 349 1079 927 1163 118 18 281 11 407 -15z"/>
    <path d="M15034 15155 c-562 -77 -1027 -359 -1315 -800 -130 -199 -217 -441 -255 -708 -20 -142 -15 -453 9 -582 47 -250 127 -457 246 -640 282 -431 732 -714 1276 -801 331 -53 752 -9 1056 111 608 240 1009 737 1110 1375 18 110 18 438 1 555 -87 587 -438 1060 -975 1315 -193 91 -369 143 -595 174 -134 19 -424 19 -558 1z m522 -675 c206 -43 376 -134 524 -280 221 -218 321 -473 321 -815 0 -160 -17 -275 -61 -402 -135 -390 -441 -638 -873 -708 -70 -11 -271 -6 -358 9 -289 51 -544 216 -702 453 -230 346 -247 860 -41 1231 153 276 441 475 754 521 41 6 86 13 100 15 50 9 247 -5 336 -24z"/>
    <path d="M925 15108 c-11 -6 -25 -19 -32 -27 -10 -12 -12 -390 -13 -1692 l0 -1676 21 -27 20 -26 349 0 c346 0 349 0 370 22 20 22 20 31 20 793 l0 771 763 -764 c419 -420 782 -777 806 -793 l45 -29 453 0 c437 0 453 1 463 19 5 11 10 26 10 33 1 7 -337 348 -749 758 l-750 745 775 905 c427 498 781 915 786 926 15 31 -5 62 -45 69 -17 3 -224 5 -459 3 -414 -3 -427 -4 -455 -24 -21 -16 -1017 -1169 -1134 -1313 l-20 -25 -244 244 -245 245 0 411 c0 390 -1 413 -19 435 l-19 24 -339 2 c-243 2 -344 0 -358 -9z"/>
    <path d="M9150 15107 c-13 -7 -30 -24 -37 -37 -10 -20 -12 -368 -10 -1696 2 -1628 2 -1672 21 -1693 19 -20 27 -21 305 -21 l287 0 860 918 c820 873 1004 1074 1138 1240 32 39 62 72 67 72 5 0 9 -464 9 -1093 0 -1086 0 -1093 20 -1115 21 -22 23 -22 375 -22 352 0 354 0 375 22 20 22 20 25 20 1704 0 1641 0 1682 -19 1705 l-19 24 -284 3 -283 2 -882 -943 c-485 -519 -951 -1022 -1035 -1118 l-153 -175 -5 1093 -5 1092 -23 23 c-22 23 -24 23 -360 26 -258 2 -343 -1 -362 -11z"/>
    <path d="M18655 15109 c-46 -26 -45 -19 -45 -506 l0 -463 -404 0 c-393 0 -404 -1 -430 -21 l-26 -20 0 -275 c0 -261 1 -275 20 -294 19 -19 33 -20 430 -20 l410 0 0 -460 0 -461 25 -24 24 -25 346 0 346 0 24 25 25 24 0 461 0 460 403 0 c398 0 404 0 423 21 18 20 19 40 19 296 l0 275 -24 19 c-22 18 -44 19 -422 19 l-399 0 0 464 c0 442 -1 465 -19 487 l-19 24 -344 2 c-238 2 -349 -1 -363 -8z"/>
    <path d="M22365 15109 c-47 -27 -45 55 -45 -1724 l0 -1682 23 -21 c23 -22 28 -22 375 -22 339 0 353 1 372 20 20 20 20 33 20 1704 0 1643 0 1684 -19 1707 l-19 24 -344 2 c-238 2 -349 -1 -363 -8z"/>
    <path d="M20486 14114 c-14 -13 -16 -55 -16 -299 0 -156 3 -291 6 -300 4 -10 36 -30 70 -46 158 -70 238 -210 264 -460 35 -342 -126 -573 -460 -660 -83 -22 -100 -23 -898 -28 -790 -6 -814 -7 -828 -25 -11 -16 -14 -75 -14 -306 0 -276 1 -287 21 -309 l21 -22 891 3 c886 3 893 4 1001 26 297 63 520 172 702 345 271 256 386 580 354 995 -33 432 -209 748 -520 937 -114 69 -275 127 -416 149 -127 20 -159 20 -178 0z"/>
    <path d="M22268 11393 c-10 -12 -27 -94 -47 -236 -29 -198 -31 -220 -17 -241 8 -14 29 -26 48 -30 205 -37 1405 -215 1419 -211 11 4 23 14 28 23 13 25 64 427 58 454 -4 13 -16 29 -27 36 -21 12 -1356 222 -1416 222 -17 0 -38 -8 -46 -17z"/>
    <path d="M3878 11300 c-97 -14 -171 -45 -208 -87 -30 -34 -32 -40 -28 -96 4 -53 8 -63 41 -93 21 -20 59 -40 94 -50 l58 -18 -35 -10 c-47 -14 -106 -75 -112 -117 -7 -43 8 -96 37 -134 20 -27 73 -57 140 -80 18 -7 17 -8 -10 -18 -48 -16 -106 -68 -126 -111 -24 -54 -24 -148 0 -201 52 -115 198 -173 407 -162 l106 5 16 -37 c45 -100 126 -154 234 -155 111 -1 170 48 170 139 0 83 -71 137 -158 120 -39 -7 -84 -56 -84 -91 0 -31 -15 -31 -44 1 -24 26 -40 65 -27 65 4 0 27 17 50 37 57 48 81 106 81 191 -1 185 -132 271 -415 272 -113 0 -155 12 -155 45 0 8 10 21 22 29 18 13 53 16 168 16 265 0 377 22 444 86 40 38 56 83 56 157 0 81 -19 127 -75 182 -48 46 -141 86 -245 105 -79 15 -323 21 -402 10z m352 -151 c55 -13 90 -43 90 -80 0 -46 -52 -59 -232 -59 -87 0 -167 5 -190 12 -75 22 -85 81 -20 113 66 31 243 38 352 14z m-77 -606 c41 -46 47 -186 10 -261 -35 -71 -116 -64 -149 13 -17 41 -18 149 -3 196 18 54 37 69 84 69 27 0 47 -6 58 -17z"/>
    <path d="M2847 11003 c-45 -7 -120 -56 -149 -99 -20 -28 -30 -57 -34 -100 -8 -78 6 -122 55 -170 63 -61 134 -84 381 -126 l75 -13 3 -57 c6 -110 -39 -163 -138 -162 -76 1 -80 5 -63 57 21 65 2 115 -57 145 -115 60 -243 -21 -225 -142 20 -128 148 -202 371 -213 176 -9 274 17 348 93 61 63 68 99 74 372 4 207 7 244 20 249 18 7 52 -30 52 -58 0 -10 4 -20 8 -23 8 -4 56 5 99 19 16 5 -12 98 -45 147 -33 51 -83 78 -156 85 -119 11 -202 -36 -235 -134 l-17 -51 -27 48 c-64 114 -176 157 -340 133z m276 -194 c31 -23 57 -101 57 -167 l0 -44 -42 7 c-69 11 -126 41 -148 77 -27 44 -25 80 6 117 32 38 87 43 127 10z"/>
    <path d="M4817 11003 c-45 -7 -120 -56 -149 -99 -20 -28 -30 -57 -34 -100 -8 -78 6 -122 55 -170 63 -61 134 -84 381 -126 l75 -13 3 -57 c6 -110 -39 -163 -138 -162 -77 1 -80 5 -62 59 21 66 3 112 -58 143 -115 60 -243 -21 -225 -142 20 -128 148 -202 371 -213 176 -9 274 17 348 93 61 63 68 99 74 372 4 207 7 244 20 249 18 7 52 -30 52 -58 0 -10 4 -20 8 -23 8 -4 56 5 99 19 16 5 -12 98 -45 147 -33 51 -83 78 -156 85 -119 11 -202 -36 -235 -134 l-17 -51 -27 48 c-64 114 -176 157 -340 133z m276 -194 c31 -23 57 -101 57 -167 l0 -44 -42 7 c-69 11 -126 41 -148 77 -27 44 -25 80 6 117 32 38 87 43 127 10z"/>
    <path d="M930 10900 l0 -90 70 0 70 0 0 -410 0 -410 -70 0 -70 0 0 -90 0 -90 308 0 307 0 114 325 c63 179 115 324 117 322 3 -3 204 -636 204 -643 0 -2 135 -4 300 -4 l300 0 0 90 0 90 -70 0 -70 0 0 410 0 410 70 0 70 0 0 90 0 90 -315 0 -315 0 0 -90 0 -90 70 0 70 0 0 -387 c0 -214 -4 -381 -9 -373 -4 8 -80 223 -167 478 l-159 462 -74 -2 -75 -3 -172 -475 -173 -475 0 388 -1 387 65 0 65 0 0 90 0 90 -230 0 -230 0 0 -90z"/>
    <path d="M5660 10916 l0 -74 236 -282 235 -282 -98 4 c-61 2 -106 9 -120 18 -28 18 -68 91 -83 153 l-12 47 -74 0 -74 0 0 -180 0 -180 405 0 405 0 0 73 -1 72 -236 280 -236 280 91 3 c146 4 180 -20 223 -160 l21 -68 74 0 74 0 0 185 0 185 -415 0 -415 0 0 -74z"/>
    <path d="M6570 10905 l0 -85 65 0 65 0 0 -255 0 -255 -65 0 -65 0 0 -85 0 -85 220 0 220 0 0 340 0 340 65 0 65 0 0 85 0 85 -285 0 -285 0 0 -85z"/>
    <path d="M7210 10905 l0 -85 60 0 60 0 0 -255 0 -255 -60 0 -60 0 0 -85 0 -85 205 0 205 0 0 93 c1 90 1 91 17 62 30 -58 81 -111 134 -140 49 -26 63 -29 149 -30 79 0 102 4 135 22 52 28 79 57 107 118 22 47 23 64 26 303 l4 252 59 0 59 0 0 85 0 85 -260 0 -260 0 0 -85 0 -85 45 0 45 0 0 -200 c0 -219 -7 -254 -54 -285 -59 -39 -151 14 -175 102 -6 21 -11 116 -11 211 l0 172 40 0 40 0 0 85 0 85 -255 0 -255 0 0 -85z"/>
    <path d="M6735 10023 c4 -10 25 -65 47 -123 83 -219 112 -258 200 -267 43 -4 63 -1 85 12 38 22 63 64 63 104 0 70 -41 121 -189 234 -73 57 -73 57 -143 57 -63 0 -69 -2 -63 -17z"/>
  </g>
</svg>
